<?xml version="1.0" encoding="utf-8"?>
<!-- Generator: Adobe Illustrator 16.0.0, SVG Export Plug-In . SVG Version: 6.00 Build 0)  -->
<!DOCTYPE svg PUBLIC "-//W3C//DTD SVG 1.1//EN" "http://www.w3.org/Graphics/SVG/1.1/DTD/svg11.dtd">
<svg version="1.1" id="Layer_1" xmlns="http://www.w3.org/2000/svg" xmlns:xlink="http://www.w3.org/1999/xlink" x="0px" y="0px"
	 width="282.608px" height="77.64px" viewBox="0 0 282.608 77.64" enable-background="new 0 0 282.608 77.64" xml:space="preserve">
<g>
	<path fill="#6A7CBC" d="M9.197,64.382V30.257h9.234c3.109,0,5.496,0.75,7.16,2.25s2.496,3.812,2.496,6.938
		c0,1.656-0.379,3.094-1.137,4.312s-1.824,2.109-3.199,2.672v0.07c1.766,0.391,3.105,1.336,4.02,2.836s1.371,3.297,1.371,5.391
		c0,3.219-0.816,5.633-2.449,7.242s-3.973,2.414-7.02,2.414H9.197z M13.908,45.046h5.156c1.391-0.047,2.461-0.535,3.211-1.465
		s1.125-2.277,1.125-4.043c0-1.922-0.41-3.34-1.23-4.254s-2.066-1.371-3.738-1.371h-4.523V45.046z M13.908,48.468v12.305h5.766
		c1.562,0,2.75-0.516,3.562-1.547s1.219-2.523,1.219-4.477c0-1.969-0.352-3.508-1.055-4.617s-1.805-1.664-3.305-1.664H13.908z"/>
	<path fill="#6A7CBC" d="M46.158,64.382c-0.156-0.578-0.289-1.129-0.398-1.652s-0.188-1.035-0.234-1.535l-0.047-0.023
		c-0.656,1.078-1.469,1.961-2.438,2.648s-2.055,1.031-3.258,1.031c-2.094,0-3.707-0.66-4.84-1.98s-1.699-3.137-1.699-5.449
		c0-2.469,0.77-4.383,2.309-5.742s3.754-2.039,6.645-2.039h3.258v-2.602c0-1.578-0.309-2.793-0.926-3.645s-1.512-1.277-2.684-1.277
		c-1.078,0-1.922,0.379-2.531,1.137S38.4,45,38.4,46.218l-4.711-0.023c0-2.078,0.773-3.871,2.32-5.379s3.594-2.262,6.141-2.262
		c2.422,0,4.363,0.723,5.824,2.168s2.191,3.566,2.191,6.363v11.766c0,0.969,0.059,1.902,0.176,2.801s0.301,1.809,0.551,2.73H46.158z
		 M40.861,61.195c1.031,0,1.953-0.309,2.766-0.926s1.422-1.41,1.828-2.379v-5.297h-3.328c-1.359,0-2.398,0.461-3.117,1.383
		s-1.078,2.062-1.078,3.422c0,1.156,0.25,2.078,0.75,2.766S39.908,61.195,40.861,61.195z"/>
	<path fill="#6A7CBC" d="M73.392,53.812c0,3.422-0.676,6.117-2.027,8.086s-3.316,2.953-5.895,2.953
		c-1.281,0-2.375-0.277-3.281-0.832s-1.672-1.371-2.297-2.449l-0.07,0.023l-0.305,2.789h-4.078V27.82h4.688v13.664h0.07
		c0.594-0.953,1.32-1.68,2.18-2.18s1.875-0.75,3.047-0.75c2.609,0,4.59,1.055,5.941,3.164s2.027,4.992,2.027,8.648V53.812z
		 M68.705,50.367c0-2.484-0.348-4.457-1.043-5.918s-1.84-2.191-3.434-2.191c-1,0-1.832,0.305-2.496,0.914s-1.199,1.453-1.605,2.531
		v12.281c0.391,1.016,0.922,1.801,1.594,2.355s1.523,0.832,2.555,0.832c1.609,0,2.75-0.645,3.422-1.934s1.008-3.098,1.008-5.426
		V50.367z"/>
	<path fill="#6A7CBC" d="M84.455,55.64l0.328,1.523h0.07l4.523-18.141h5.156L86.095,68.32c-0.531,1.734-1.277,3.219-2.238,4.453
		s-2.379,1.852-4.254,1.852c-0.406,0-0.809-0.039-1.207-0.117s-0.832-0.18-1.301-0.305l0.516-3.516
		c0.172,0.031,0.395,0.062,0.668,0.094s0.488,0.047,0.645,0.047c0.891,0,1.539-0.293,1.945-0.879s0.836-1.621,1.289-3.105
		l0.773-2.578l-7.406-25.242h5.109L84.455,55.64z"/>
	<path d="M115.697,53.812c0,3.406-0.684,6.098-2.051,8.074s-3.324,2.965-5.871,2.965c-1.172,0-2.188-0.23-3.047-0.691
		s-1.594-1.137-2.203-2.027l-0.07,0.023v11.977h-4.688V39.023h4.219l0.258,2.695l0.047,0.023c0.625-1.031,1.383-1.82,2.273-2.367
		s1.953-0.82,3.188-0.82c2.562,0,4.527,1.09,5.895,3.27s2.051,5.137,2.051,8.871V53.812z M111.009,50.695
		c0-2.547-0.371-4.59-1.113-6.129s-1.895-2.309-3.457-2.309c-0.969,0-1.773,0.281-2.414,0.844s-1.164,1.352-1.57,2.367v12.867
		c0.391,0.953,0.91,1.68,1.559,2.18s1.473,0.75,2.473,0.75c1.562,0,2.707-0.672,3.434-2.016s1.09-3.156,1.09-5.438V50.695z"/>
	<path d="M130.65,43.031l-2.18-0.117c-0.891,0-1.625,0.277-2.203,0.832s-1.031,1.355-1.359,2.402v18.234h-4.711V39.023h4.312
		l0.305,3.539h0.07c0.5-1.266,1.137-2.25,1.91-2.953s1.691-1.055,2.754-1.055c0.297,0,0.598,0.027,0.902,0.082
		s0.559,0.121,0.762,0.199L130.65,43.031z"/>
	<path d="M133.251,50.109c0-3.438,0.82-6.223,2.461-8.355s3.945-3.199,6.914-3.199c2.984,0,5.297,1.066,6.938,3.199
		s2.461,4.918,2.461,8.355v3.234c0,3.469-0.816,6.254-2.449,8.355s-3.934,3.152-6.902,3.152c-3,0-5.32-1.055-6.961-3.164
		s-2.461-4.891-2.461-8.344V50.109z M137.962,53.343c0,2.375,0.375,4.289,1.125,5.742s1.945,2.18,3.586,2.18
		c1.594,0,2.77-0.73,3.527-2.191s1.137-3.371,1.137-5.73v-3.234c0-2.344-0.383-4.246-1.148-5.707s-1.953-2.191-3.562-2.191
		c-1.625,0-2.809,0.73-3.551,2.191s-1.113,3.363-1.113,5.707V53.343z"/>
	<path d="M155.681,52.007c0-4.141,0.688-7.418,2.062-9.832s3.352-3.621,5.93-3.621c1.109,0,2.082,0.242,2.918,0.727
		s1.566,1.188,2.191,2.109l0.07-0.023V27.82h4.711v36.562h-4.102l-0.328-2.695l-0.07-0.023c-0.641,1.047-1.406,1.84-2.297,2.379
		s-1.938,0.809-3.141,0.809c-2.562,0-4.527-1.105-5.895-3.316s-2.051-5.223-2.051-9.035V52.007z M160.368,52.5
		c0,2.719,0.348,4.844,1.043,6.375s1.824,2.297,3.387,2.297c0.953,0,1.758-0.262,2.414-0.785s1.203-1.277,1.641-2.262V45.515
		c-0.438-1.031-0.984-1.832-1.641-2.402s-1.445-0.855-2.367-0.855c-1.562,0-2.699,0.883-3.41,2.648s-1.066,4.133-1.066,7.102V52.5z"
		/>
	<path d="M191.634,61.148h-0.047c-0.641,1.203-1.445,2.121-2.414,2.754s-2.094,0.949-3.375,0.949c-2.219,0-3.93-0.863-5.133-2.59
		s-1.805-4.48-1.805-8.262V39.023h4.688v15.023c0,2.656,0.273,4.508,0.82,5.555s1.406,1.57,2.578,1.57c1.094,0,2-0.262,2.719-0.785
		s1.297-1.285,1.734-2.285V39.023h4.688v25.359h-4.148L191.634,61.148z"/>
	<path d="M209.774,61.265c1.125,0,2.086-0.453,2.883-1.359s1.164-2.148,1.102-3.727h4.406c0.062,2.5-0.734,4.57-2.391,6.211
		s-3.633,2.461-5.93,2.461c-3.078,0-5.398-1.051-6.961-3.152s-2.344-4.84-2.344-8.215v-3.492c0-3.375,0.785-6.125,2.355-8.25
		s3.879-3.188,6.926-3.188c2.547,0,4.586,0.848,6.117,2.543s2.273,3.988,2.227,6.879h-4.406c0.047-1.75-0.293-3.148-1.02-4.195
		s-1.715-1.57-2.965-1.57c-1.719,0-2.902,0.715-3.551,2.145s-0.973,3.309-0.973,5.637v3.492c0,2.375,0.32,4.266,0.961,5.672
		S208.04,61.265,209.774,61.265z"/>
	<path d="M227.868,32.718v6.305h3.656v3.398h-3.656v15.094c0,1.344,0.156,2.281,0.469,2.812s0.734,0.797,1.266,0.797
		c0.312,0,0.602-0.023,0.867-0.07s0.531-0.109,0.797-0.188l0.492,3.258c-0.422,0.219-0.926,0.395-1.512,0.527
		s-1.191,0.199-1.816,0.199c-1.703,0-3.008-0.574-3.914-1.723s-1.359-3.02-1.359-5.613V42.421h-2.789v-3.398h2.789v-6.305H227.868z"
		/>
	<path d="M244.017,64.851c-2.859,0-5.125-1.027-6.797-3.082s-2.508-4.746-2.508-8.074v-3.703c0-3.375,0.828-6.125,2.484-8.25
		s3.812-3.188,6.469-3.188c2.812,0,4.945,0.965,6.398,2.895s2.18,4.582,2.18,7.957v3.281h-12.82v1.008
		c0,2.25,0.406,4.074,1.219,5.473s2.039,2.098,3.68,2.098c1.5,0,2.699-0.211,3.598-0.633s1.676-1.023,2.332-1.805l1.336,3.047
		c-0.766,0.922-1.785,1.648-3.059,2.18S245.751,64.851,244.017,64.851z M243.665,42.21c-1.281,0-2.289,0.656-3.023,1.969
		s-1.141,3.016-1.219,5.109h8.18v-0.961c0-1.828-0.324-3.305-0.973-4.43S244.993,42.21,243.665,42.21z"/>
	<path d="M260.704,39.023l0.258,3.422h0.07c0.641-1.234,1.457-2.191,2.449-2.871s2.129-1.02,3.41-1.02
		c2.156,0,3.816,0.793,4.98,2.379s1.746,4.121,1.746,7.605v15.844h-4.711V48.585c0-2.359-0.301-4.004-0.902-4.934
		s-1.559-1.395-2.871-1.395c-0.891,0-1.672,0.281-2.344,0.844s-1.234,1.344-1.688,2.344v18.938h-4.711V39.023H260.704z"/>
</g>
<g>
	<g>
		<path fill="#CF67A8" d="M95.162,22.201c0,2.566-0.507,4.588-1.521,6.064s-2.487,2.215-4.421,2.215
			c-0.961,0-1.781-0.208-2.461-0.624s-1.254-1.028-1.723-1.837l-0.053,0.018l-0.229,2.092h-3.059V2.707h3.516v10.248h0.053
			c0.445-0.715,0.99-1.26,1.635-1.635s1.406-0.562,2.285-0.562c1.957,0,3.442,0.791,4.456,2.373s1.521,3.744,1.521,6.486V22.201z
			 M91.646,19.617c0-1.863-0.261-3.343-0.782-4.438s-1.38-1.644-2.575-1.644c-0.75,0-1.374,0.229-1.872,0.686
			s-0.899,1.09-1.204,1.898v9.211c0.293,0.762,0.691,1.351,1.195,1.767s1.143,0.624,1.916,0.624c1.207,0,2.062-0.483,2.566-1.45
			s0.756-2.323,0.756-4.069V19.617z"/>
		<path fill="#CF67A8" d="M104.918,30.48c-2.145,0-3.844-0.771-5.098-2.312s-1.881-3.56-1.881-6.056v-2.777
			c0-2.531,0.621-4.594,1.863-6.188s2.859-2.391,4.852-2.391c2.109,0,3.709,0.724,4.799,2.171s1.635,3.437,1.635,5.968v2.461h-9.615
			v0.756c0,1.688,0.305,3.056,0.914,4.104s1.529,1.573,2.76,1.573c1.125,0,2.024-0.158,2.698-0.475s1.257-0.768,1.749-1.354
			l1.002,2.285c-0.574,0.691-1.339,1.236-2.294,1.635S106.219,30.48,104.918,30.48z M104.654,13.5c-0.961,0-1.717,0.492-2.268,1.477
			s-0.855,2.262-0.914,3.832h6.135v-0.721c0-1.371-0.243-2.479-0.729-3.322S105.65,13.5,104.654,13.5z"/>
		<path fill="#CF67A8" d="M122.619,25.365c0-0.75-0.22-1.374-0.659-1.872s-1.298-1.058-2.575-1.679
			c-1.898-0.773-3.29-1.579-4.175-2.417s-1.327-1.96-1.327-3.366c0-1.488,0.545-2.739,1.635-3.753s2.549-1.521,4.377-1.521
			c1.898,0,3.398,0.551,4.5,1.652s1.652,2.52,1.652,4.254h-3.516c0-0.926-0.229-1.708-0.686-2.347s-1.107-0.958-1.951-0.958
			c-0.832,0-1.471,0.249-1.916,0.747s-0.668,1.093-0.668,1.784c0,0.738,0.19,1.312,0.571,1.723s1.239,0.961,2.575,1.652
			c1.934,0.727,3.352,1.532,4.254,2.417s1.354,2.054,1.354,3.507c0,1.605-0.56,2.889-1.679,3.85s-2.628,1.441-4.526,1.441
			c-2.051,0-3.645-0.589-4.781-1.767s-1.705-2.604-1.705-4.28h3.41c0.035,1.254,0.343,2.147,0.923,2.681s1.315,0.8,2.206,0.8
			c0.867,0,1.535-0.234,2.004-0.703S122.619,26.127,122.619,25.365z"/>
		<path fill="#CF67A8" d="M133.535,6.381v4.729h2.742v2.549h-2.742v11.32c0,1.008,0.117,1.711,0.352,2.109s0.551,0.598,0.949,0.598
			c0.234,0,0.451-0.018,0.65-0.053s0.398-0.082,0.598-0.141l0.369,2.443c-0.316,0.164-0.694,0.296-1.134,0.396
			s-0.894,0.149-1.362,0.149c-1.277,0-2.256-0.431-2.936-1.292s-1.02-2.265-1.02-4.21v-11.32h-2.092v-2.549h2.092V6.381H133.535z"/>
		<path fill="#CF67A8" d="M145.646,30.48c-2.145,0-3.844-0.771-5.098-2.312s-1.881-3.56-1.881-6.056v-2.777
			c0-2.531,0.621-4.594,1.863-6.188s2.859-2.391,4.852-2.391c2.109,0,3.709,0.724,4.799,2.171s1.635,3.437,1.635,5.968v2.461h-9.615
			v0.756c0,1.688,0.305,3.056,0.914,4.104s1.529,1.573,2.76,1.573c1.125,0,2.024-0.158,2.698-0.475s1.257-0.768,1.749-1.354
			l1.002,2.285c-0.574,0.691-1.339,1.236-2.294,1.635S146.947,30.48,145.646,30.48z M145.383,13.5c-0.961,0-1.717,0.492-2.268,1.477
			s-0.855,2.262-0.914,3.832h6.135v-0.721c0-1.371-0.243-2.479-0.729-3.322S146.379,13.5,145.383,13.5z"/>
	</g>
</g>
</svg>
