<?xml version="1.0" encoding="utf-8"?>
<!-- Generator: Adobe Illustrator 16.0.0, SVG Export Plug-In . SVG Version: 6.00 Build 0)  -->
<!DOCTYPE svg PUBLIC "-//W3C//DTD SVG 1.1//EN" "http://www.w3.org/Graphics/SVG/1.1/DTD/svg11.dtd">
<svg version="1.1" id="Layer_1" xmlns="http://www.w3.org/2000/svg" xmlns:xlink="http://www.w3.org/1999/xlink" x="0px" y="0px"
	 width="299.379px" height="77.64px" viewBox="0 0 299.379 77.64" enable-background="new 0 0 299.379 77.64" xml:space="preserve">
<g>
	<path fill="#6A7CBC" d="M14.95,53.696h-1.922v11.625H8.341V28.758h4.688v21.305h1.898l5.039-10.102h5.484l-6.82,11.438
		l7.688,13.922h-5.461L14.95,53.696z"/>
	<path fill="#6A7CBC" d="M34.146,33.305h-4.688v-4.547h4.688V33.305z M34.146,65.321h-4.688V39.961h4.688V65.321z"/>
	<path fill="#6A7CBC" d="M44.036,39.961l0.258,3.422h0.07c0.641-1.234,1.457-2.191,2.449-2.871s2.129-1.02,3.41-1.02
		c2.156,0,3.816,0.793,4.98,2.379s1.746,4.121,1.746,7.605v15.844h-4.711V49.524c0-2.359-0.301-4.004-0.902-4.934
		s-1.559-1.395-2.871-1.395c-0.891,0-1.672,0.281-2.344,0.844s-1.234,1.344-1.688,2.344v18.938h-4.711V39.961H44.036z"/>
	<path fill="#6A7CBC" d="M61.356,52.946c0-4.141,0.688-7.418,2.062-9.832s3.352-3.621,5.93-3.621c1.109,0,2.082,0.242,2.918,0.727
		s1.566,1.188,2.191,2.109l0.07-0.023V28.758h4.711v36.562h-4.102l-0.328-2.695l-0.07-0.023c-0.641,1.047-1.406,1.84-2.297,2.379
		s-1.938,0.809-3.141,0.809c-2.562,0-4.527-1.105-5.895-3.316s-2.051-5.223-2.051-9.035V52.946z M66.044,53.438
		c0,2.719,0.348,4.844,1.043,6.375s1.824,2.297,3.387,2.297c0.953,0,1.758-0.262,2.414-0.785s1.203-1.277,1.641-2.262V46.454
		c-0.438-1.031-0.984-1.832-1.641-2.402s-1.445-0.855-2.367-0.855c-1.562,0-2.699,0.883-3.41,2.648s-1.066,4.133-1.066,7.102V53.438
		z"/>
	<path fill="#6A7CBC" d="M93.161,65.79c-2.859,0-5.125-1.027-6.797-3.082s-2.508-4.746-2.508-8.074V50.93
		c0-3.375,0.828-6.125,2.484-8.25s3.812-3.188,6.469-3.188c2.812,0,4.945,0.965,6.398,2.895s2.18,4.582,2.18,7.957v3.281h-12.82
		v1.008c0,2.25,0.406,4.074,1.219,5.473s2.039,2.098,3.68,2.098c1.5,0,2.699-0.211,3.598-0.633s1.676-1.023,2.332-1.805l1.336,3.047
		c-0.766,0.922-1.785,1.648-3.059,2.18S94.896,65.79,93.161,65.79z M92.81,43.149c-1.281,0-2.289,0.656-3.023,1.969
		s-1.141,3.016-1.219,5.109h8.18v-0.961c0-1.828-0.324-3.305-0.973-4.43S94.138,43.149,92.81,43.149z"/>
	<path fill="#6A7CBC" d="M116.036,43.969l-2.18-0.117c-0.891,0-1.625,0.277-2.203,0.832s-1.031,1.355-1.359,2.402v18.234h-4.711
		V39.961h4.312L110.2,43.5h0.07c0.5-1.266,1.137-2.25,1.91-2.953s1.691-1.055,2.754-1.055c0.297,0,0.598,0.027,0.902,0.082
		s0.559,0.121,0.762,0.199L116.036,43.969z"/>
	<path d="M137.88,54.75c0,3.406-0.684,6.098-2.051,8.074s-3.324,2.965-5.871,2.965c-1.172,0-2.188-0.23-3.047-0.691
		s-1.594-1.137-2.203-2.027l-0.07,0.023v11.977h-4.688V39.961h4.219l0.258,2.695l0.047,0.023c0.625-1.031,1.383-1.82,2.273-2.367
		s1.953-0.82,3.188-0.82c2.562,0,4.527,1.09,5.895,3.27s2.051,5.137,2.051,8.871V54.75z M133.192,51.633
		c0-2.547-0.371-4.59-1.113-6.129s-1.895-2.309-3.457-2.309c-0.969,0-1.773,0.281-2.414,0.844s-1.164,1.352-1.57,2.367v12.867
		c0.391,0.953,0.91,1.68,1.559,2.18s1.473,0.75,2.473,0.75c1.562,0,2.707-0.672,3.434-2.016s1.09-3.156,1.09-5.438V51.633z"/>
	<path d="M152.833,43.969l-2.18-0.117c-0.891,0-1.625,0.277-2.203,0.832s-1.031,1.355-1.359,2.402v18.234h-4.711V39.961h4.312
		l0.305,3.539h0.07c0.5-1.266,1.137-2.25,1.91-2.953s1.691-1.055,2.754-1.055c0.297,0,0.598,0.027,0.902,0.082
		s0.559,0.121,0.762,0.199L152.833,43.969z"/>
	<path d="M155.435,51.047c0-3.438,0.82-6.223,2.461-8.355s3.945-3.199,6.914-3.199c2.984,0,5.297,1.066,6.938,3.199
		s2.461,4.918,2.461,8.355v3.234c0,3.469-0.816,6.254-2.449,8.355s-3.934,3.152-6.902,3.152c-3,0-5.32-1.055-6.961-3.164
		s-2.461-4.891-2.461-8.344V51.047z M160.146,54.282c0,2.375,0.375,4.289,1.125,5.742s1.945,2.18,3.586,2.18
		c1.594,0,2.77-0.73,3.527-2.191s1.137-3.371,1.137-5.73v-3.234c0-2.344-0.383-4.246-1.148-5.707s-1.953-2.191-3.562-2.191
		c-1.625,0-2.809,0.73-3.551,2.191s-1.113,3.363-1.113,5.707V54.282z"/>
	<path d="M177.864,52.946c0-4.141,0.688-7.418,2.062-9.832s3.352-3.621,5.93-3.621c1.109,0,2.082,0.242,2.918,0.727
		s1.566,1.188,2.191,2.109l0.07-0.023V28.758h4.711v36.562h-4.102l-0.328-2.695l-0.07-0.023c-0.641,1.047-1.406,1.84-2.297,2.379
		s-1.938,0.809-3.141,0.809c-2.562,0-4.527-1.105-5.895-3.316s-2.051-5.223-2.051-9.035V52.946z M182.552,53.438
		c0,2.719,0.348,4.844,1.043,6.375s1.824,2.297,3.387,2.297c0.953,0,1.758-0.262,2.414-0.785s1.203-1.277,1.641-2.262V46.454
		c-0.438-1.031-0.984-1.832-1.641-2.402s-1.445-0.855-2.367-0.855c-1.562,0-2.699,0.883-3.41,2.648s-1.066,4.133-1.066,7.102V53.438
		z"/>
	<path d="M213.817,62.086h-0.047c-0.641,1.203-1.445,2.121-2.414,2.754s-2.094,0.949-3.375,0.949c-2.219,0-3.93-0.863-5.133-2.59
		s-1.805-4.48-1.805-8.262V39.961h4.688v15.023c0,2.656,0.273,4.508,0.82,5.555s1.406,1.57,2.578,1.57c1.094,0,2-0.262,2.719-0.785
		s1.297-1.285,1.734-2.285V39.961h4.688v25.359h-4.148L213.817,62.086z"/>
	<path d="M231.958,62.204c1.125,0,2.086-0.453,2.883-1.359s1.164-2.148,1.102-3.727h4.406c0.062,2.5-0.734,4.57-2.391,6.211
		s-3.633,2.461-5.93,2.461c-3.078,0-5.398-1.051-6.961-3.152s-2.344-4.84-2.344-8.215V50.93c0-3.375,0.785-6.125,2.355-8.25
		s3.879-3.188,6.926-3.188c2.547,0,4.586,0.848,6.117,2.543s2.273,3.988,2.227,6.879h-4.406c0.047-1.75-0.293-3.148-1.02-4.195
		s-1.715-1.57-2.965-1.57c-1.719,0-2.902,0.715-3.551,2.145s-0.973,3.309-0.973,5.637v3.492c0,2.375,0.32,4.266,0.961,5.672
		S230.224,62.204,231.958,62.204z"/>
	<path d="M250.052,33.657v6.305h3.656v3.398h-3.656v15.094c0,1.344,0.156,2.281,0.469,2.812s0.734,0.797,1.266,0.797
		c0.312,0,0.602-0.023,0.867-0.07s0.531-0.109,0.797-0.188l0.492,3.258c-0.422,0.219-0.926,0.395-1.512,0.527
		s-1.191,0.199-1.816,0.199c-1.703,0-3.008-0.574-3.914-1.723s-1.359-3.02-1.359-5.613V43.36h-2.789v-3.398h2.789v-6.305H250.052z"
		/>
	<path d="M266.2,65.79c-2.859,0-5.125-1.027-6.797-3.082s-2.508-4.746-2.508-8.074V50.93c0-3.375,0.828-6.125,2.484-8.25
		s3.812-3.188,6.469-3.188c2.812,0,4.945,0.965,6.398,2.895s2.18,4.582,2.18,7.957v3.281h-12.82v1.008
		c0,2.25,0.406,4.074,1.219,5.473s2.039,2.098,3.68,2.098c1.5,0,2.699-0.211,3.598-0.633s1.676-1.023,2.332-1.805l1.336,3.047
		c-0.766,0.922-1.785,1.648-3.059,2.18S267.935,65.79,266.2,65.79z M265.849,43.149c-1.281,0-2.289,0.656-3.023,1.969
		s-1.141,3.016-1.219,5.109h8.18v-0.961c0-1.828-0.324-3.305-0.973-4.43S267.177,43.149,265.849,43.149z"/>
	<path d="M282.888,39.961l0.258,3.422h0.07c0.641-1.234,1.457-2.191,2.449-2.871s2.129-1.02,3.41-1.02
		c2.156,0,3.816,0.793,4.98,2.379s1.746,4.121,1.746,7.605v15.844h-4.711V49.524c0-2.359-0.301-4.004-0.902-4.934
		s-1.559-1.395-2.871-1.395c-0.891,0-1.672,0.281-2.344,0.844s-1.234,1.344-1.688,2.344v18.938h-4.711V39.961H282.888z"/>
</g>
<g>
	<g>
		<path fill="#CF67A8" d="M101.021,23.14c0,2.566-0.507,4.588-1.521,6.064s-2.487,2.215-4.421,2.215
			c-0.961,0-1.781-0.208-2.461-0.624s-1.254-1.028-1.723-1.837l-0.053,0.018l-0.229,2.092h-3.059V3.646h3.516v10.248h0.053
			c0.445-0.715,0.99-1.26,1.635-1.635s1.406-0.562,2.285-0.562c1.957,0,3.442,0.791,4.456,2.373s1.521,3.744,1.521,6.486V23.14z
			 M97.505,20.556c0-1.863-0.261-3.343-0.782-4.438s-1.38-1.644-2.575-1.644c-0.75,0-1.374,0.229-1.872,0.686
			s-0.899,1.09-1.204,1.898v9.211c0.293,0.762,0.691,1.351,1.195,1.767s1.143,0.624,1.916,0.624c1.207,0,2.062-0.483,2.566-1.45
			s0.756-2.323,0.756-4.069V20.556z"/>
		<path fill="#CF67A8" d="M110.777,31.419c-2.145,0-3.844-0.771-5.098-2.312s-1.881-3.56-1.881-6.056v-2.777
			c0-2.531,0.621-4.594,1.863-6.188s2.859-2.391,4.852-2.391c2.109,0,3.709,0.724,4.799,2.171s1.635,3.437,1.635,5.968v2.461h-9.615
			v0.756c0,1.688,0.305,3.056,0.914,4.104s1.529,1.573,2.76,1.573c1.125,0,2.024-0.158,2.698-0.475s1.257-0.768,1.749-1.354
			l1.002,2.285c-0.574,0.691-1.339,1.236-2.294,1.635S112.078,31.419,110.777,31.419z M110.513,14.438
			c-0.961,0-1.717,0.492-2.268,1.477s-0.855,2.262-0.914,3.832h6.135v-0.721c0-1.371-0.243-2.479-0.729-3.322
			S111.509,14.438,110.513,14.438z"/>
		<path fill="#CF67A8" d="M128.478,26.304c0-0.75-0.22-1.374-0.659-1.872s-1.298-1.058-2.575-1.679
			c-1.898-0.773-3.29-1.579-4.175-2.417s-1.327-1.96-1.327-3.366c0-1.488,0.545-2.739,1.635-3.753s2.549-1.521,4.377-1.521
			c1.898,0,3.398,0.551,4.5,1.652s1.652,2.52,1.652,4.254h-3.516c0-0.926-0.229-1.708-0.686-2.347s-1.107-0.958-1.951-0.958
			c-0.832,0-1.471,0.249-1.916,0.747s-0.668,1.093-0.668,1.784c0,0.738,0.19,1.312,0.571,1.723s1.239,0.961,2.575,1.652
			c1.934,0.727,3.352,1.532,4.254,2.417s1.354,2.054,1.354,3.507c0,1.605-0.56,2.889-1.679,3.85s-2.628,1.441-4.526,1.441
			c-2.051,0-3.645-0.589-4.781-1.767s-1.705-2.604-1.705-4.28h3.41c0.035,1.254,0.343,2.147,0.923,2.681s1.315,0.8,2.206,0.8
			c0.867,0,1.535-0.234,2.004-0.703S128.478,27.065,128.478,26.304z"/>
		<path fill="#CF67A8" d="M139.394,7.319v4.729h2.742v2.549h-2.742v11.32c0,1.008,0.117,1.711,0.352,2.109s0.551,0.598,0.949,0.598
			c0.234,0,0.451-0.018,0.65-0.053s0.398-0.082,0.598-0.141l0.369,2.443c-0.316,0.164-0.694,0.296-1.134,0.396
			s-0.894,0.149-1.362,0.149c-1.277,0-2.256-0.431-2.936-1.292s-1.02-2.265-1.02-4.21v-11.32h-2.092v-2.549h2.092V7.319H139.394z"/>
		<path fill="#CF67A8" d="M151.505,31.419c-2.145,0-3.844-0.771-5.098-2.312s-1.881-3.56-1.881-6.056v-2.777
			c0-2.531,0.621-4.594,1.863-6.188s2.859-2.391,4.852-2.391c2.109,0,3.708,0.724,4.798,2.171s1.635,3.437,1.635,5.968v2.461h-9.615
			v0.756c0,1.688,0.305,3.056,0.914,4.104s1.529,1.573,2.76,1.573c1.125,0,2.025-0.158,2.699-0.475s1.256-0.768,1.748-1.354
			l1.002,2.285c-0.574,0.691-1.338,1.236-2.293,1.635S152.806,31.419,151.505,31.419z M151.242,14.438
			c-0.961,0-1.717,0.492-2.268,1.477s-0.855,2.262-0.914,3.832h6.134v-0.721c0-1.371-0.242-2.479-0.729-3.322
			S152.237,14.438,151.242,14.438z"/>
	</g>
</g>
</svg>
